# xmcd
#
# Track frame offsets:
#	150
#	10420
#	22399
#	32146
#	42749
#	54436
#	66398
#	78939
#	90266
#	101532
#	111771
#	123518
#	132947
#	143094
#	154800
#	165224
#	181161
#	192420
#	201955
#	212396
#	223670
#	234263
#	246773
#	256976
#	269881
#	283154
#	295081
#	309460
#	321096
#
# Disc length: 4425 seconds
#
# Revision: 0
# Processed by: cddbd v1.5.1PL0 Copyright (c) Steve Scherf et al.
# Submitted via: audiograbber 1.83.01
#
DISCID=ac11471d
DTITLE=Marvin Rainwater - Classic Recordings disc 2
DYEAR=1900
DGENRE=
TTITLE0=hey good lookin' 1962
TTITLE1=do it now 1962
TTITLE2=it wasn't enough 1962
TTITLE3=that little house 1962
TTITLE4=part time lover (& bill guess) 1963
TTITLE5=that aching hert (& bill guess) 1963
TTITLE6=love's prison (& bill guess) 1963
TTITLE7=ghese thoughts of you (& bill guess) 1963
TTITLE8=bad girl (& bill guess) 1964
TTITLE9=i saw your new love today (& bill guess) 1964
TTITLE10=my old home town 1965
TTITLE11=branded 1992
TTITLE12=it wasn't enough 1965
TTITLE13=sing the girls a song 1992
TTITLE14=indian burial ground 1965
TTITLE15=the black sheep 1965
TTITLE16=troublues my little boy had 1966
TTITLE17=sorrow brings a good man down 1966
TTITLE18=i want your heart 1992
TTITLE19=talk to me 1992
TTITLE20=run for your life boy 1967
TTITLE21=the old gang's gone (& bill guess) 1967
TTITLE22=cold woman (doudle tracked vocal) 1992
TTITLE23=oklahoma hills 1968
TTITLE24=wedding rings (& patty rainwater) 1968
TTITLE25=let me live again 1969
TTITLE26=i love my country 1969
TTITLE27=burning bridges 1992
TTITLE28=black jack mc clain 1992
EXTD=
EXTT0=
EXTT1=
EXTT2=
EXTT3=
EXTT4=
EXTT5=
EXTT6=
EXTT7=
EXTT8=
EXTT9=
EXTT10=
EXTT11=
EXTT12=
EXTT13=
EXTT14=
EXTT15=
EXTT16=
EXTT17=
EXTT18=
EXTT19=
EXTT20=
EXTT21=
EXTT22=
EXTT23=
EXTT24=
EXTT25=
EXTT26=
EXTT27=
EXTT28=
PLAYORDER=
